<svg width="23" height="16" viewBox="0 0 23 16" fill="none" xmlns="http://www.w3.org/2000/svg">
<path fill-rule="evenodd" clip-rule="evenodd" d="M3.5 0.25C1.98122 0.25 0.75 1.48122 0.75 3V13C0.75 14.5188 1.98122 15.75 3.5 15.75H19.5C21.0188 15.75 22.25 14.5188 22.25 13V3C22.25 1.48122 21.0188 0.25 19.5 0.25H3.5ZM2.25 3C2.25 2.30964 2.80964 1.75 3.5 1.75H19.5C20.1904 1.75 20.75 2.30964 20.75 3V5.5H2.25V3ZM2.25 7V13C2.25 13.6904 2.80964 14.25 3.5 14.25H19.5C20.1904 14.25 20.75 13.6904 20.75 13V7H2.25Z" fill="#2B2C39"/>
</svg>
