<svg width="24" height="24" viewBox="0 0 24 24" fill="none" xmlns="http://www.w3.org/2000/svg">
<path fill-rule="evenodd" clip-rule="evenodd" d="M3.99963 4.25C2.48085 4.25 1.24963 5.48122 1.24963 7V17C1.24963 18.5188 2.48085 19.75 3.99963 19.75H19.9996C21.5184 19.75 22.7496 18.5188 22.7496 17V7C22.7496 5.48122 21.5184 4.25 19.9996 4.25H3.99963ZM2.74963 7C2.74963 6.30964 3.30928 5.75 3.99963 5.75H19.9996C20.69 5.75 21.2496 6.30964 21.2496 7V9.5H2.74963V7ZM2.74963 11V17C2.74963 17.6904 3.30928 18.25 3.99963 18.25H19.9996C20.69 18.25 21.2496 17.6904 21.2496 17V11H2.74963Z" fill="#B3B6BE"/>
</svg>
