<svg width="20" height="21" viewBox="0 0 20 21" fill="none" xmlns="http://www.w3.org/2000/svg">
<path d="M4.99999 2.79167C4.4247 2.79167 3.95833 3.25804 3.95833 3.83334V17.1667C3.95833 17.742 4.4247 18.2083 4.99999 18.2083H9.99999C10.3452 18.2083 10.625 18.4882 10.625 18.8333C10.625 19.1785 10.3452 19.4583 9.99999 19.4583H4.99999C3.73434 19.4583 2.70833 18.4323 2.70833 17.1667V3.83334C2.70833 2.56769 3.73434 1.54167 4.99999 1.54167H15C16.2656 1.54167 17.2917 2.56769 17.2917 3.83334V10.5C17.2917 10.8452 17.0118 11.125 16.6667 11.125C16.3215 11.125 16.0417 10.8452 16.0417 10.5V3.83334C16.0417 3.25804 15.5753 2.79167 15 2.79167H4.99999Z" fill="#FF9D2A"/>
<path d="M5.20833 8.8334C5.20833 8.48822 5.48815 8.2084 5.83333 8.2084H10.8333C11.1785 8.2084 11.4583 8.48822 11.4583 8.8334C11.4583 9.17857 11.1785 9.4584 10.8333 9.4584H5.83333C5.48815 9.4584 5.20833 9.17857 5.20833 8.8334Z" fill="#FF9D2A"/>
<path d="M5.83333 4.87506C5.48815 4.87506 5.20833 5.15488 5.20833 5.50006C5.20833 5.84524 5.48815 6.12506 5.83333 6.12506H14.1667C14.5118 6.12506 14.7917 5.84524 14.7917 5.50006C14.7917 5.15488 14.5118 4.87506 14.1667 4.87506H5.83333Z" fill="#FF9D2A"/>
<path d="M17.9419 13.4419C18.186 13.1979 18.186 12.8021 17.9419 12.5581C17.6979 12.314 17.3021 12.314 17.0581 12.5581L15 14.6161L12.9419 12.5581C12.6979 12.314 12.3021 12.314 12.0581 12.5581C11.814 12.8021 11.814 13.1979 12.0581 13.4419L14.1161 15.5L12.0581 17.5581C11.814 17.8021 11.814 18.1979 12.0581 18.4419C12.3021 18.686 12.6979 18.686 12.9419 18.4419L15 16.3839L17.0581 18.4419C17.3021 18.686 17.6979 18.686 17.9419 18.4419C18.186 18.1979 18.186 17.8021 17.9419 17.5581L15.8839 15.5L17.9419 13.4419Z" fill="#FF9D2A"/>
</svg>
