<svg width="91" height="108" viewBox="0 0 91 108" fill="none" xmlns="http://www.w3.org/2000/svg">
<g filter="url(#filter0_b_1_6104)">
<path d="M29.5218 55.8728C27.6558 57.5858 27.5111 60.5432 29.6099 61.9613C32.5916 63.976 36.0967 65.1485 39.7508 65.3048C44.9466 65.5269 50.0179 63.676 53.8491 60.159C57.6802 56.6421 59.9573 51.7473 60.1795 46.5515C60.3886 41.6618 58.7617 36.8825 55.6381 33.1432C55.3133 32.7544 54.7312 32.7309 54.358 33.0735L40.5885 45.7138L29.5218 55.8728Z" fill="#B3B6BE"/>
<path d="M39.4704 40.8661C39.1701 41.1441 38.6998 41.127 38.4362 40.8141C35.9006 37.8039 34.5705 33.9486 34.7231 29.9981C34.8853 25.8002 36.7085 21.8387 39.7916 18.985C42.8746 16.1314 46.965 14.6193 51.1629 14.7815C54.1151 14.8956 56.9504 15.8311 59.3657 17.4486C61.0657 18.5872 60.9587 20.9766 59.4571 22.3665L50.5513 30.6097L39.4704 40.8661Z" fill="#B3B6BE"/>
</g>
<path d="M5.7666 103.256C4.79004 103.256 3.94287 103.032 3.2251 102.583C2.51221 102.133 1.96289 101.496 1.57715 100.671C1.19141 99.8457 0.998535 98.8643 0.998535 97.7266V97.7119C0.998535 96.5693 1.19141 95.5854 1.57715 94.7603C1.96289 93.9351 2.51221 93.2979 3.2251 92.8486C3.93799 92.3994 4.78516 92.1748 5.7666 92.1748C6.54297 92.1748 7.24365 92.3286 7.86865 92.6362C8.49854 92.939 9.01367 93.3589 9.41406 93.896C9.81934 94.4331 10.0659 95.0508 10.1538 95.749V95.793H8.52051L8.51318 95.7637C8.41553 95.3291 8.2373 94.9531 7.97852 94.6357C7.71973 94.3184 7.40234 94.0718 7.02637 93.896C6.65039 93.7202 6.23047 93.6323 5.7666 93.6323C5.13672 93.6323 4.58984 93.7983 4.12598 94.1304C3.66699 94.4624 3.31055 94.9336 3.05664 95.5439C2.80762 96.1494 2.68311 96.8721 2.68311 97.7119V97.7266C2.68311 98.5566 2.80762 99.2769 3.05664 99.8872C3.31055 100.498 3.66699 100.969 4.12598 101.301C4.58984 101.633 5.13916 101.799 5.77393 101.799C6.23779 101.799 6.65771 101.721 7.03369 101.564C7.41455 101.408 7.73193 101.186 7.98584 100.898C8.23975 100.605 8.41309 100.261 8.50586 99.8652L8.52051 99.8359H10.1611L10.1538 99.8726C10.0513 100.551 9.80225 101.145 9.40674 101.652C9.01123 102.16 8.50342 102.556 7.8833 102.839C7.26318 103.117 6.55762 103.256 5.7666 103.256ZM15.1005 103.154C14.3241 103.154 13.6527 102.988 13.0863 102.656C12.5248 102.324 12.0927 101.85 11.7899 101.235C11.4872 100.615 11.3358 99.8799 11.3358 99.0303V99.0156C11.3358 98.1611 11.4872 97.4263 11.7899 96.811C12.0976 96.1958 12.5321 95.7222 13.0937 95.3901C13.6601 95.0581 14.329 94.8921 15.1005 94.8921C15.8769 94.8921 16.5458 95.0581 17.1073 95.3901C17.6688 95.7173 18.101 96.1909 18.4037 96.811C18.7113 97.4263 18.8651 98.1611 18.8651 99.0156V99.0303C18.8651 99.8799 18.7113 100.615 18.4037 101.235C18.101 101.85 17.6688 102.324 17.1073 102.656C16.5507 102.988 15.8817 103.154 15.1005 103.154ZM15.1005 101.821C15.5546 101.821 15.9403 101.711 16.2577 101.491C16.5751 101.267 16.8168 100.947 16.9828 100.532C17.1488 100.117 17.2318 99.6162 17.2318 99.0303V99.0156C17.2318 98.4248 17.1488 97.9219 16.9828 97.5068C16.8168 97.0918 16.5751 96.7744 16.2577 96.5547C15.9403 96.3301 15.5546 96.2178 15.1005 96.2178C14.6464 96.2178 14.2606 96.3301 13.9433 96.5547C13.6259 96.7744 13.3817 97.0918 13.2108 97.5068C13.0448 97.9219 12.9618 98.4248 12.9618 99.0156V99.0303C12.9618 99.6162 13.0448 100.117 13.2108 100.532C13.3817 100.947 13.6259 101.267 13.9433 101.491C14.2606 101.711 14.6464 101.821 15.1005 101.821ZM20.3548 103V95.0459H21.9441V96.269H22.0687C22.2444 95.8296 22.5179 95.4902 22.889 95.251C23.2649 95.0117 23.7142 94.8921 24.2366 94.8921C24.5979 94.8921 24.9227 94.9507 25.2107 95.0679C25.4988 95.1851 25.7454 95.3511 25.9505 95.5659C26.1604 95.7759 26.324 96.0249 26.4412 96.313H26.5657C26.6976 96.0249 26.8831 95.7759 27.1224 95.5659C27.3616 95.3511 27.6399 95.1851 27.9573 95.0679C28.2796 94.9507 28.6214 94.8921 28.9827 94.8921C29.5198 94.8921 29.9788 94.9971 30.3597 95.207C30.7405 95.4121 31.0311 95.71 31.2313 96.1006C31.4314 96.4912 31.5315 96.9624 31.5315 97.5142V103H29.9422V97.895C29.9422 97.5288 29.886 97.2261 29.7737 96.9868C29.6614 96.7427 29.4905 96.5596 29.261 96.4375C29.0364 96.3154 28.7532 96.2544 28.4114 96.2544C28.0745 96.2544 27.7791 96.3325 27.5252 96.4888C27.2762 96.6401 27.0809 96.8452 26.9393 97.104C26.8025 97.3579 26.7342 97.646 26.7342 97.9683V103H25.1448V97.7339C25.1448 97.4312 25.0813 97.1699 24.9544 96.9502C24.8323 96.7256 24.6565 96.5547 24.4271 96.4375C24.1976 96.3154 23.9266 96.2544 23.6141 96.2544C23.2967 96.2544 23.011 96.3374 22.7571 96.5034C22.5081 96.6694 22.3104 96.894 22.1639 97.1772C22.0174 97.4556 21.9441 97.7681 21.9441 98.1147V103H20.3548ZM33.3801 103V95.0459H34.9768V103H33.3801ZM34.1857 93.625C33.9123 93.625 33.6779 93.5273 33.4826 93.332C33.2873 93.1367 33.1896 92.9023 33.1896 92.6289C33.1896 92.3555 33.2873 92.1235 33.4826 91.9331C33.6779 91.7378 33.9123 91.6401 34.1857 91.6401C34.4592 91.6401 34.6936 91.7378 34.8889 91.9331C35.0842 92.1235 35.1818 92.3555 35.1818 92.6289C35.1818 92.9023 35.0842 93.1367 34.8889 93.332C34.6936 93.5273 34.4592 93.625 34.1857 93.625ZM36.8839 103V95.0459H38.4732V96.2471H38.5978C38.7931 95.8223 39.0812 95.4902 39.462 95.251C39.8429 95.0117 40.3238 94.8921 40.9049 94.8921C41.7984 94.8921 42.482 95.1484 42.9557 95.6611C43.4293 96.1738 43.6661 96.9038 43.6661 97.8511V103H42.0694V98.2246C42.0694 97.5605 41.9303 97.0674 41.652 96.7451C41.3785 96.418 40.9488 96.2544 40.3629 96.2544C39.9771 96.2544 39.6427 96.3398 39.3595 96.5107C39.0763 96.6768 38.8565 96.916 38.7003 97.2285C38.5489 97.5361 38.4732 97.9048 38.4732 98.3345V103H36.8839ZM48.8398 105.805C48.166 105.805 47.5801 105.712 47.082 105.527C46.5889 105.341 46.1982 105.083 45.9102 104.75C45.6221 104.418 45.4463 104.033 45.3828 103.593L45.3901 103.579H47.0015L47.0088 103.593C47.0771 103.867 47.27 104.091 47.5874 104.267C47.9048 104.443 48.3296 104.531 48.8618 104.531C49.5161 104.531 50.0264 104.382 50.3926 104.084C50.7637 103.786 50.9492 103.369 50.9492 102.832V101.271H50.8247C50.6685 101.555 50.4683 101.799 50.2241 102.004C49.98 102.204 49.7017 102.355 49.3892 102.458C49.0767 102.561 48.7373 102.612 48.3711 102.612C47.6973 102.612 47.1113 102.451 46.6133 102.128C46.1201 101.801 45.7393 101.352 45.4707 100.781C45.207 100.205 45.0752 99.543 45.0752 98.7959V98.7812C45.0752 98.0244 45.2095 97.3555 45.478 96.7744C45.7466 96.1885 46.1299 95.7319 46.6279 95.4048C47.126 95.0728 47.7192 94.9067 48.4077 94.9067C48.7788 94.9067 49.1182 94.9653 49.4258 95.0825C49.7383 95.1997 50.0142 95.3657 50.2534 95.5806C50.4927 95.7954 50.6904 96.0518 50.8467 96.3496H50.9419V95.0459H52.5312V102.839C52.5312 103.439 52.3799 103.962 52.0771 104.406C51.7793 104.851 51.3545 105.195 50.8027 105.439C50.251 105.683 49.5967 105.805 48.8398 105.805ZM48.8179 101.293C49.2671 101.293 49.6528 101.188 49.9751 100.979C50.2974 100.764 50.5439 100.468 50.7148 100.092C50.8906 99.7163 50.9785 99.2817 50.9785 98.7886V98.7739C50.9785 98.2856 50.8906 97.8511 50.7148 97.4702C50.5439 97.0894 50.2974 96.7915 49.9751 96.5767C49.6528 96.3618 49.2671 96.2544 48.8179 96.2544C48.3687 96.2544 47.9854 96.3618 47.668 96.5767C47.3555 96.7915 47.1162 97.0894 46.9502 97.4702C46.7842 97.8462 46.7012 98.2808 46.7012 98.7739V98.7886C46.7012 99.2817 46.7842 99.7163 46.9502 100.092C47.1162 100.468 47.3555 100.764 47.668 100.979C47.9854 101.188 48.3687 101.293 48.8179 101.293ZM61.0037 103.154C60.3641 103.154 59.8074 103.061 59.3338 102.875C58.8602 102.685 58.4842 102.424 58.2059 102.092C57.9275 101.755 57.764 101.364 57.7151 100.92V100.905H59.3118V100.92C59.4144 101.218 59.6097 101.459 59.8978 101.645C60.1858 101.831 60.5667 101.923 61.0403 101.923C61.3675 101.923 61.6531 101.877 61.8973 101.784C62.1463 101.691 62.3416 101.562 62.4832 101.396C62.6248 101.23 62.6956 101.04 62.6956 100.825V100.81C62.6956 100.561 62.5955 100.351 62.3953 100.18C62.1951 100.009 61.8655 99.8701 61.4065 99.7627L60.1321 99.4697C59.6341 99.3574 59.2215 99.2036 58.8943 99.0083C58.5672 98.813 58.3255 98.5737 58.1692 98.2905C58.013 98.0024 57.9349 97.6655 57.9349 97.2798V97.2725C57.9349 96.8086 58.0667 96.3984 58.3304 96.042C58.594 95.6807 58.9578 95.3999 59.4217 95.1997C59.8904 94.9946 60.4251 94.8921 61.0257 94.8921C61.6312 94.8921 62.1585 94.9873 62.6077 95.1777C63.0618 95.3633 63.4207 95.6221 63.6844 95.9541C63.948 96.2812 64.1043 96.6621 64.1531 97.0967V97.104H62.6297V97.0894C62.5564 96.811 62.3807 96.5791 62.1023 96.3936C61.8289 96.208 61.4676 96.1152 61.0184 96.1152C60.7303 96.1152 60.4739 96.1616 60.2493 96.2544C60.0247 96.3423 59.8465 96.4668 59.7146 96.6279C59.5877 96.7842 59.5242 96.9697 59.5242 97.1846V97.1992C59.5242 97.3652 59.5657 97.5117 59.6487 97.6387C59.7366 97.7607 59.8733 97.8706 60.0589 97.9683C60.2444 98.061 60.4837 98.144 60.7767 98.2173L62.0438 98.5029C62.8055 98.6836 63.3719 98.9448 63.743 99.2866C64.1189 99.6284 64.3069 100.087 64.3069 100.664V100.678C64.3069 101.167 64.1629 101.599 63.8748 101.975C63.5867 102.346 63.1937 102.636 62.6956 102.846C62.2024 103.051 61.6385 103.154 61.0037 103.154ZM69.1657 103.154C68.3894 103.154 67.718 102.988 67.1516 102.656C66.59 102.324 66.1579 101.85 65.8552 101.235C65.5524 100.615 65.4011 99.8799 65.4011 99.0303V99.0156C65.4011 98.1611 65.5524 97.4263 65.8552 96.811C66.1628 96.1958 66.5974 95.7222 67.1589 95.3901C67.7253 95.0581 68.3942 94.8921 69.1657 94.8921C69.9421 94.8921 70.611 95.0581 71.1726 95.3901C71.7341 95.7173 72.1662 96.1909 72.4689 96.811C72.7766 97.4263 72.9304 98.1611 72.9304 99.0156V99.0303C72.9304 99.8799 72.7766 100.615 72.4689 101.235C72.1662 101.85 71.7341 102.324 71.1726 102.656C70.6159 102.988 69.947 103.154 69.1657 103.154ZM69.1657 101.821C69.6198 101.821 70.0056 101.711 70.323 101.491C70.6403 101.267 70.882 100.947 71.048 100.532C71.2141 100.117 71.2971 99.6162 71.2971 99.0303V99.0156C71.2971 98.4248 71.2141 97.9219 71.048 97.5068C70.882 97.0918 70.6403 96.7744 70.323 96.5547C70.0056 96.3301 69.6198 96.2178 69.1657 96.2178C68.7116 96.2178 68.3259 96.3301 68.0085 96.5547C67.6911 96.7744 67.447 97.0918 67.2761 97.5068C67.1101 97.9219 67.0271 98.4248 67.0271 99.0156V99.0303C67.0271 99.6162 67.1101 100.117 67.2761 100.532C67.447 100.947 67.6911 101.267 68.0085 101.491C68.3259 101.711 68.7116 101.821 69.1657 101.821ZM77.7892 103.154C77.0128 103.154 76.3414 102.988 75.775 102.656C75.2135 102.324 74.7813 101.85 74.4786 101.235C74.1759 100.615 74.0245 99.8799 74.0245 99.0303V99.0156C74.0245 98.1611 74.1759 97.4263 74.4786 96.811C74.7862 96.1958 75.2208 95.7222 75.7823 95.3901C76.3487 95.0581 77.0177 94.8921 77.7892 94.8921C78.5655 94.8921 79.2345 95.0581 79.796 95.3901C80.3575 95.7173 80.7896 96.1909 81.0924 96.811C81.4 97.4263 81.5538 98.1611 81.5538 99.0156V99.0303C81.5538 99.8799 81.4 100.615 81.0924 101.235C80.7896 101.85 80.3575 102.324 79.796 102.656C79.2394 102.988 78.5704 103.154 77.7892 103.154ZM77.7892 101.821C78.2433 101.821 78.629 101.711 78.9464 101.491C79.2638 101.267 79.5055 100.947 79.6715 100.532C79.8375 100.117 79.9205 99.6162 79.9205 99.0303V99.0156C79.9205 98.4248 79.8375 97.9219 79.6715 97.5068C79.5055 97.0918 79.2638 96.7744 78.9464 96.5547C78.629 96.3301 78.2433 96.2178 77.7892 96.2178C77.3351 96.2178 76.9493 96.3301 76.6319 96.5547C76.3146 96.7744 76.0704 97.0918 75.8995 97.5068C75.7335 97.9219 75.6505 98.4248 75.6505 99.0156V99.0303C75.6505 99.6162 75.7335 100.117 75.8995 100.532C76.0704 100.947 76.3146 101.267 76.6319 101.491C76.9493 101.711 77.3351 101.821 77.7892 101.821ZM83.0435 103V95.0459H84.6328V96.2471H84.7573C84.9526 95.8223 85.2407 95.4902 85.6216 95.251C86.0024 95.0117 86.4834 94.8921 87.0645 94.8921C87.958 94.8921 88.6416 95.1484 89.1152 95.6611C89.5889 96.1738 89.8257 96.9038 89.8257 97.8511V103H88.229V98.2246C88.229 97.5605 88.0898 97.0674 87.8115 96.7451C87.5381 96.418 87.1084 96.2544 86.5225 96.2544C86.1367 96.2544 85.8022 96.3398 85.519 96.5107C85.2358 96.6768 85.0161 96.916 84.8599 97.2285C84.7085 97.5361 84.6328 97.9048 84.6328 98.3345V103H83.0435Z" fill="#B3B6BE"/>
<defs>
<filter id="filter0_b_1_6104" x="25.2238" y="11.9146" width="38.2434" height="56.2634" filterUnits="userSpaceOnUse" color-interpolation-filters="sRGB">
<feFlood flood-opacity="0" result="BackgroundImageFix"/>
<feGaussianBlur in="BackgroundImageFix" stdDeviation="1.42761"/>
<feComposite in2="SourceAlpha" operator="in" result="effect1_backgroundBlur_1_6104"/>
<feBlend mode="normal" in="SourceGraphic" in2="effect1_backgroundBlur_1_6104" result="shape"/>
</filter>
</defs>
</svg>
