<svg width="25" height="24" viewBox="0 0 25 24" fill="none" xmlns="http://www.w3.org/2000/svg">
<path d="M7.41595 8.28771C7.41595 7.87349 7.08017 7.53771 6.66595 7.53771C6.25174 7.53771 5.91595 7.87349 5.91595 8.28771L5.91595 17.8336C5.91595 17.9394 5.93784 18.04 5.97732 18.1312C6.00827 18.2029 6.05093 18.2707 6.1053 18.3318C6.12556 18.3546 6.1472 18.3762 6.17007 18.3963C6.22697 18.4466 6.28966 18.4867 6.35581 18.5167C6.45033 18.5597 6.55535 18.5836 6.66596 18.5836H16.2119C16.6261 18.5836 16.9619 18.2479 16.9619 17.8336C16.9619 17.4194 16.6261 17.0836 16.2119 17.0836H8.47659L18.8635 6.6967C19.1564 6.4038 19.1564 5.92893 18.8635 5.63604C18.5707 5.34314 18.0958 5.34314 17.8029 5.63604L7.41595 16.023L7.41595 8.28771Z" fill="#2B2C39"/>
</svg>
